<svg width="15" height="18" viewBox="0 0 15 18" fill="none" xmlns="http://www.w3.org/2000/svg">
<path d="M1.85184 5.83948H1.80925C1.26327 5.83948 0.818115 6.28605 0.818115 6.83061V11.1458C0.818115 11.6925 1.26327 12.1377 1.80925 12.1377H1.85256C2.39854 12.1377 2.8437 11.6911 2.8437 11.1458V6.83058C2.84297 6.28605 2.39712 5.83948 1.85184 5.83948Z" fill="#495582"/>
<path d="M3.31812 12.8115C3.31812 13.3127 3.72776 13.7209 4.22901 13.7209H5.2024V16.0518C5.2024 16.5992 5.64898 17.0443 6.19354 17.0443H6.23613C6.78282 17.0443 7.22868 16.5985 7.22868 16.0518V13.7209H8.589V16.0518C8.589 16.5992 9.037 17.0443 9.58155 17.0443H9.62345C10.1701 17.0443 10.6153 16.5985 10.6153 16.0518V13.7209H11.5894C12.0899 13.7209 12.4996 13.3127 12.4996 12.8115V5.9978H3.31812V12.8115Z" fill="#495582"/>
<path d="M10.1957 1.86585L10.9689 0.672398C11.0186 0.597124 10.9965 0.494202 10.9206 0.445194C10.8453 0.395494 10.7424 0.416098 10.6934 0.493478L9.89183 1.72814C9.29049 1.48178 8.61885 1.34335 7.90956 1.34335C7.19957 1.34335 6.52935 1.48178 5.9266 1.72814L5.12646 0.493478C5.07749 0.416098 4.97381 0.395494 4.89784 0.445194C4.82188 0.49417 4.79986 0.597124 4.84956 0.672398L5.62343 1.86585C4.22831 2.54957 3.2876 3.83818 3.2876 5.31634C3.2876 5.40722 3.29329 5.49668 3.30109 5.58541H12.5187C12.5265 5.49668 12.5315 5.40722 12.5315 5.31634C12.5315 3.83818 11.5901 2.54957 10.1957 1.86585ZM5.77253 4.00288C5.52758 4.00288 5.32878 3.8055 5.32878 3.55986C5.32878 3.31423 5.52758 3.11753 5.77253 3.11753C6.01889 3.11753 6.21627 3.31419 6.21627 3.55986C6.21627 3.80553 6.01747 4.00288 5.77253 4.00288ZM10.0459 4.00288C9.80095 4.00288 9.60215 3.8055 9.60215 3.55986C9.60215 3.31423 9.80095 3.11753 10.0459 3.11753C10.2915 3.11753 10.4889 3.31419 10.4889 3.55986C10.4889 3.8055 10.2915 4.00288 10.0459 4.00288Z" fill="#495582"/>
<path d="M14.0081 5.83948H13.9669C13.4209 5.83948 12.9744 6.28605 12.9744 6.83061V11.1458C12.9744 11.6925 13.4217 12.1377 13.9669 12.1377H14.0088C14.5555 12.1377 14.9999 11.6911 14.9999 11.1458V6.83058C14.9999 6.28605 14.5541 5.83948 14.0081 5.83948Z" fill="#495582"/>
</svg>
