<svg width="30" height="30" viewBox="0 0 30 30" fill="none" xmlns="http://www.w3.org/2000/svg">
<circle opacity="0.2" cx="15" cy="15" r="13.9" stroke="black" stroke-width="2.2"/>
<path d="M20.1417 18C19.9415 18.0004 19.7475 17.9307 19.5933 17.8031L15.0008 13.9672L10.3998 17.6661C10.3121 17.7372 10.2113 17.7903 10.1031 17.8224C9.99481 17.8544 9.88129 17.8648 9.76902 17.8528C9.65676 17.8409 9.54796 17.8069 9.44888 17.7528C9.3498 17.6987 9.2624 17.6256 9.19169 17.5376C9.12052 17.4501 9.06737 17.3493 9.0353 17.2411C9.00323 17.1329 8.99286 17.0195 9.00481 16.9073C9.01675 16.7951 9.05076 16.6864 9.10489 16.5874C9.15902 16.4884 9.23219 16.401 9.32021 16.3304L14.4611 12.1948C14.6144 12.0688 14.8067 12 15.0051 12C15.2036 12 15.3959 12.0688 15.5492 12.1948L20.69 16.4759C20.7768 16.5478 20.8485 16.6361 20.9011 16.7357C20.9536 16.8353 20.986 16.9443 20.9964 17.0565C21.0067 17.1686 20.9948 17.2817 20.9614 17.3892C20.9279 17.4968 20.8736 17.5967 20.8014 17.6832C20.7217 17.7814 20.6212 17.8608 20.5071 17.9155C20.393 17.9703 20.2682 17.9992 20.1417 18Z" fill="black"/>
</svg>
