<svg width="18" height="18" viewBox="0 0 18 18" fill="none" xmlns="http://www.w3.org/2000/svg">
<path fill-rule="evenodd" clip-rule="evenodd" d="M18 4.66014V5.00014C18.0009 6.06623 17.5761 7.08855 16.82 7.84014L14 10.6701C13.4739 11.1912 12.6262 11.1912 12.1 10.6701L12 10.5601C11.8095 10.3657 11.8095 10.0546 12 9.86014L15.44 6.42014C15.8071 6.03945 16.0084 5.52889 16 5.00014V4.66014C16.0005 4.12709 15.7881 3.61593 15.41 3.24014L14.76 2.59014C14.3842 2.2121 13.8731 1.99972 13.34 2.00014H13C12.467 1.99972 11.9558 2.2121 11.58 2.59014L8.14004 6.00014C7.94562 6.19071 7.63447 6.19071 7.44004 6.00014L7.33004 5.89014C6.80893 5.364 6.80893 4.51628 7.33004 3.99014L10.16 1.15014C10.9166 0.405054 11.9383 -0.00866789 13 0.000137738H13.34C14.4012 -0.000696727 15.4193 0.420183 16.17 1.17014L16.83 1.83014C17.58 2.58093 18.0009 3.59895 18 4.66014ZM5.64998 10.9402L10.94 5.65016C11.0339 5.5555 11.1617 5.50226 11.295 5.50226C11.4283 5.50226 11.5561 5.5555 11.65 5.65016L12.35 6.35016C12.4446 6.44404 12.4979 6.57184 12.4979 6.70516C12.4979 6.83848 12.4446 6.96627 12.35 7.06016L7.05998 12.3502C6.96609 12.4448 6.83829 12.4981 6.70498 12.4981C6.57166 12.4981 6.44386 12.4448 6.34998 12.3502L5.64998 11.6502C5.55532 11.5563 5.50208 11.4285 5.50208 11.2952C5.50208 11.1618 5.55532 11.034 5.64998 10.9402ZM10.56 12.0002C10.3656 11.8096 10.0544 11.8096 9.86 12.0002L6.43 15.4102C6.05177 15.7907 5.53651 16.0033 5 16.0002H4.66C4.12696 16.0006 3.6158 15.7882 3.24 15.4102L2.59 14.7602C2.21196 14.3844 1.99958 13.8732 2 13.3402V13.0002C1.99958 12.4671 2.21196 11.956 2.59 11.5802L6.01 8.14016C6.20057 7.94574 6.20057 7.63459 6.01 7.44016L5.9 7.33016C5.37386 6.80905 4.52614 6.80905 4 7.33016L1.18 10.1602C0.423924 10.9118 -0.000842241 11.9341 1.25385e-06 13.0002V13.3502C0.00181631 14.4079 0.422495 15.4218 1.17 16.1702L1.83 16.8302C2.58079 17.5801 3.59882 18.001 4.66 18.0002H5C6.05345 18.0063 7.0668 17.5967 7.82 16.8602L10.67 14.0102C11.1911 13.484 11.1911 12.6363 10.67 12.1102L10.56 12.0002Z" fill="#959CA3"/>
</svg>
