<svg width="17" height="13" viewBox="0 0 17 13" fill="none" xmlns="http://www.w3.org/2000/svg">
<path d="M0 4.72727H3.4V8.27273H0V4.72727ZM4.53333 8.27273H7.93333V4.72727H4.53333V8.27273ZM9.06667 8.27273H12.4667V4.72727H9.06667V8.27273ZM13.6 8.27273H17V4.72727H13.6V8.27273ZM13.6 0V3.54545H17V0H13.6ZM9.06667 3.54545H12.4667V0H9.06667V3.54545ZM4.53333 3.54545H7.93333V0H4.53333V3.54545ZM0 13H3.4V9.45455H0V13ZM4.53333 13H7.93333V9.45455H4.53333V13ZM9.06667 13H12.4667V9.45455H9.06667V13Z" fill="#5E676F"/>
</svg>
