<svg width="36" height="36" viewBox="0 0 36 36" fill="none" xmlns="http://www.w3.org/2000/svg">
<path fill-rule="evenodd" clip-rule="evenodd" d="M18 33.3C9.54992 33.3 2.70002 26.4501 2.70002 18C2.70002 9.54984 9.54992 2.69994 18 2.69994C26.4501 2.69994 33.3 9.54984 33.3 18C33.2928 26.4465 26.4465 33.2928 18 33.3ZM18 0C8.0595 0 0 8.0595 0 18C0 27.9414 8.0595 36 18 36C27.9414 36 36 27.9414 36 18C36 8.0595 27.9414 0 18 0Z" fill="#FFC300"/>
<path fill-rule="evenodd" clip-rule="evenodd" d="M10.5 15C12.1568 15 13.5 16.3432 13.5 18C13.5 19.6568 12.1568 21 10.5 21C8.84322 21 7.5 19.6568 7.5 18C7.5 16.3432 8.84322 15 10.5 15Z" fill="#FFC300"/>
<path fill-rule="evenodd" clip-rule="evenodd" d="M18 15C19.6568 15 21 16.3432 21 18C21 19.6568 19.6568 21 18 21C16.3432 21 15 19.6568 15 18C15 16.3432 16.3432 15 18 15Z" fill="#FFC300"/>
<path fill-rule="evenodd" clip-rule="evenodd" d="M25.5 15C27.1568 15 28.5 16.3432 28.5 18C28.5 19.6568 27.1568 21 25.5 21C23.8432 21 22.5 19.6568 22.5 18C22.5 16.3432 23.8432 15 25.5 15Z" fill="#FFC300"/>
</svg>
