<svg width="36" height="36" viewBox="0 0 36 36" fill="none" xmlns="http://www.w3.org/2000/svg">
<path fill-rule="evenodd" clip-rule="evenodd" d="M18 33.3C9.56346 33.3 2.70006 26.4366 2.70006 18C2.70006 9.56347 9.56346 2.70008 18 2.70008C26.4366 2.70008 33.3 9.56347 33.3 18C33.3 26.4366 26.4366 33.3 18 33.3ZM18 0C8.0586 0 0 8.0595 0 18C0 27.9414 8.0586 36 18 36C27.9405 36 36 27.9414 36 18C36 8.0595 27.9405 0 18 0Z" fill="#317D34"/>
<path fill-rule="evenodd" clip-rule="evenodd" d="M22.5006 15V19.5H18.0006V17.9997H19.5009V15H22.5006ZM13.5006 16.5148V13.4999H18.0006V16.5005L13.5006 16.5148ZM19.5006 12.0003H13.5003V10.5H12V26.9997H13.5003V17.9997H16.5V21.0003H24.0006V13.4997H19.5006V12.0003Z" fill="#317D34"/>
</svg>
