<svg width="36" height="36" viewBox="0 0 36 36" fill="none" xmlns="http://www.w3.org/2000/svg">
<path fill-rule="evenodd" clip-rule="evenodd" d="M18 33.3C9.56334 33.3 2.69994 26.4366 2.69994 18C2.69994 9.56334 9.56334 2.69994 18 2.69994C26.4366 2.69994 33.3 9.56334 33.3 18C33.3 26.4366 26.4366 33.3 18 33.3ZM18 0C8.0595 0 0 8.0595 0 18C0 27.9414 8.0595 36 18 36C27.9414 36 36 27.9414 36 18C36 8.0595 27.9414 0 18 0Z" fill="#E6324E"/>
<path fill-rule="evenodd" clip-rule="evenodd" d="M23.7963 12.9782L23.0118 12.1936C22.6886 11.8703 22.1628 11.8703 21.8354 12.1936L17.985 16.0461L14.1558 12.2178C13.8325 11.8945 13.3068 11.8945 12.9794 12.2178L12.1949 13.0014C11.8725 13.3247 11.8725 13.8514 12.1949 14.1778L16.0241 18.007L12.1989 21.8302C11.8766 22.1535 11.8766 22.6792 12.1989 23.0065L12.9835 23.7912C13.3068 24.1144 13.8325 24.1144 14.1598 23.7912L17.985 19.968L21.8183 23.8012C22.1406 24.1245 22.6674 24.1245 22.9947 23.8012L23.7783 23.0166C24.1016 22.6933 24.1016 22.1676 23.7783 21.8403L19.946 18.007L23.7963 14.1546C24.1197 13.8313 24.1197 13.3056 23.7963 12.9782Z" fill="#E6324E"/>
</svg>
