<svg width="38" height="38" viewBox="0 0 38 38" fill="none" xmlns="http://www.w3.org/2000/svg">
<path d="M38 19C38 29.4711 29.4711 38 19 38C8.52889 38 0 29.4711 0 19C0 8.52889 8.52889 0 19 0C29.4711 0 38 8.52889 38 19ZM36.3111 19C36.3111 9.45778 28.5422 1.68889 19 1.68889C9.45778 1.68889 1.68889 9.45778 1.68889 19C1.68889 28.5422 9.45778 36.3111 19 36.3111C28.5422 36.3111 36.3111 28.5422 36.3111 19Z" fill="#4475F2"/>
<path d="M18.2558 13V23.0444L15.0698 19.7523L14 20.8336L19 26L24 20.8336L22.9302 19.7523L19.7442 23.0444V13H18.2558Z" fill="#4475F2"/>
</svg>
