<svg width="15" height="18" viewBox="0 0 15 18" fill="none" xmlns="http://www.w3.org/2000/svg">
<path d="M2.29362 5.11062C2.29362 5.11062 1.13744 6.2854 1.07494 7.52655V7.75885C1.12494 8.76106 1.8374 9.35177 1.8374 9.35177C2.98108 10.5398 5.74968 12.0332 6.39964 12.3717C6.39964 12.3717 6.43714 12.3916 6.46214 12.365L6.47463 12.3385V12.3186V12.3119C4.69973 8.20354 2.29362 5.11062 2.29362 5.11062ZM6.03091 13.3805C6.01841 13.3274 5.96841 13.3274 5.96841 13.3274L1.35617 13.5C1.85615 14.4491 2.69985 15.1792 3.58105 14.9602C4.18101 14.7942 5.55594 13.7788 6.00591 13.4336C6.04341 13.4004 6.03091 13.3739 6.03091 13.3739V13.3805ZM6.08091 12.8628C4.05602 11.4093 0.131243 9.18584 0.131243 9.18584C0.0374979 9.49115 0.00624965 9.78318 0 10.0487V10.0951C0 10.8053 0.249986 11.3031 0.249986 11.3031C0.749958 12.4248 1.7124 12.7633 1.7124 12.7633C2.14988 12.9624 2.58735 12.969 2.58735 12.969C2.66235 12.9823 5.3372 12.969 6.04966 12.969C6.08091 12.969 6.09966 12.9358 6.09966 12.9358V12.896C6.09966 12.8761 6.08091 12.8628 6.08091 12.8628ZM5.66218 3.15265C5.21908 3.27281 4.82394 3.54073 4.53484 3.91705C4.24574 4.29337 4.07791 4.75824 4.05602 5.24336V5.51549C4.07477 5.91372 4.15602 6.21239 4.15602 6.21239C4.56849 8.13717 6.56838 11.2898 6.99961 11.9535C7.03085 11.9867 7.0621 11.9734 7.0621 11.9734C7.0741 11.9679 7.08418 11.9586 7.0909 11.9467C7.09763 11.9348 7.10067 11.9209 7.0996 11.9071C7.76206 4.87168 6.40589 3 6.40589 3C6.2059 3.01327 5.66218 3.15265 5.66218 3.15265V3.15265ZM10.8494 4.65929C10.8494 4.65929 10.5432 3.4646 9.32447 3.14602C9.32447 3.14602 8.96824 3.0531 8.59327 3C8.59327 3 7.23084 4.86504 7.89331 11.9137C7.89955 11.9602 7.9308 11.9668 7.9308 11.9668C7.97455 11.9867 7.9933 11.9469 7.9933 11.9469C8.44327 11.2633 10.4307 8.12389 10.8369 6.21239C10.8369 6.21239 11.0619 5.28319 10.8494 4.65929V4.65929ZM9.02449 13.3341C9.02449 13.3341 8.98074 13.3341 8.96824 13.3673C8.96824 13.3673 8.96199 13.4137 8.98699 13.4336C9.42447 13.7721 10.7681 14.7611 11.4119 14.9602C11.4119 14.9602 11.5119 14.9934 11.6806 15H11.7681C12.1993 14.9867 12.9555 14.7544 13.643 13.5L9.01824 13.3341H9.02449ZM13.918 7.75221C14.0055 6.38496 12.7055 5.11726 12.7055 5.11062C12.7055 5.11062 10.2994 8.20354 8.53702 12.2788C8.53702 12.2788 8.51827 12.3319 8.54952 12.365L8.57452 12.3717H8.61201C9.27448 12.0199 12.0243 10.5332 13.1618 9.35841C13.1618 9.35841 13.8805 8.74115 13.918 7.75221ZM14.8679 9.17257C14.8679 9.17257 10.9431 11.4093 8.91825 12.8562C8.91825 12.8562 8.887 12.8827 8.8995 12.9292C8.8995 12.9292 8.91825 12.969 8.94325 12.969C9.66821 12.969 12.418 12.969 12.4868 12.9558C12.4868 12.9558 12.843 12.9425 13.2805 12.7633C13.2805 12.7633 14.2554 12.4314 14.7617 11.2566C14.7617 11.2566 15.2179 10.2942 14.8679 9.17257V9.17257Z" fill="#495582"/>
</svg>
