<svg width="26" height="26" viewBox="0 0 26 26" fill="none" xmlns="http://www.w3.org/2000/svg">
<circle cx="13" cy="13" r="13" fill="#EFF0F0"/>
<path d="M12.0483 15.4574H13.2415V15.3977C13.2614 14.1648 13.5795 13.6278 14.4545 13.081C15.3295 12.549 15.8466 11.7834 15.8466 10.6847C15.8466 9.13352 14.7131 8 12.9631 8C11.3523 8 10.0746 8.99432 10 10.6847H11.2528C11.3274 9.51136 12.1477 9.03409 12.9631 9.03409C13.8977 9.03409 14.6534 9.65057 14.6534 10.625C14.6534 11.4155 14.201 11.9822 13.6193 12.3352C12.6449 12.9268 12.0632 13.5036 12.0483 15.3977V15.4574ZM12.6847 18.4006C13.1768 18.4006 13.5795 17.9979 13.5795 17.5057C13.5795 17.0135 13.1768 16.6108 12.6847 16.6108C12.1925 16.6108 11.7898 17.0135 11.7898 17.5057C11.7898 17.9979 12.1925 18.4006 12.6847 18.4006Z" fill="#858585"/>
</svg>
