<svg width="15" height="18" viewBox="0 0 15 18" fill="none" xmlns="http://www.w3.org/2000/svg">
<path d="M0.731871 6.37935C-0.735241 8.92524 0.197429 12.7888 1.81981 15.1314C2.62964 16.3026 3.44954 17.3539 4.57253 17.3539C4.5937 17.3539 4.61492 17.3535 4.63666 17.3526C5.16427 17.3316 5.54554 17.1691 5.91418 17.0121C6.32806 16.8357 6.7561 16.6534 7.4275 16.6534C8.06623 16.6534 8.47385 16.8298 8.86804 17.0004C9.25654 17.1685 9.6567 17.3424 10.248 17.3313C11.5129 17.3077 12.2896 16.1733 12.9748 15.1725C13.6898 14.1276 14.0485 13.113 14.1696 12.7253L14.1744 12.7099C14.1975 12.641 14.1649 12.5658 14.0989 12.5355C14.0971 12.5346 14.0903 12.5318 14.0885 12.531C13.8657 12.4399 11.9117 11.5731 11.8912 9.21047C11.8721 7.29096 13.3571 6.27448 13.6549 6.09025L13.6687 6.0816C13.701 6.06083 13.7235 6.02789 13.7311 5.99022C13.7387 5.95261 13.7308 5.91347 13.7091 5.88183C12.6842 4.38189 11.1132 4.15583 10.4808 4.12864C10.389 4.11948 10.2942 4.11487 10.1991 4.11487C9.45625 4.11487 8.74463 4.39543 8.17292 4.62086C7.77827 4.77648 7.4374 4.91087 7.20229 4.91087C6.93812 4.91087 6.59531 4.77483 6.19833 4.61733C5.66748 4.40664 5.06578 4.1679 4.42881 4.1679C4.41362 4.1679 4.39865 4.16807 4.38392 4.16835C2.90287 4.19014 1.50341 5.03747 0.731871 6.37935Z" fill="#495582"/>
<path d="M10.4822 0.000109326C9.58529 0.0366377 8.5094 0.588718 7.86634 1.34193C7.31984 1.97503 6.78597 3.0306 6.92662 4.09459C6.93544 4.16116 6.98961 4.21254 7.05657 4.21772C7.11711 4.22244 7.1789 4.22483 7.24047 4.22489C8.11743 4.22489 9.06348 3.73972 9.70955 2.95851C10.3895 2.13361 10.7334 1.07497 10.6294 0.126707C10.6212 0.0523984 10.5558 -0.00279246 10.4822 0.000109326Z" fill="#495582"/>
</svg>
