<svg width="15" height="15" viewBox="0 0 15 15" fill="none" xmlns="http://www.w3.org/2000/svg">
<path d="M2.3276 8.18182H9.88904C9.97848 8.18191 10.067 8.16432 10.1497 8.13005C10.2323 8.09578 10.3073 8.04552 10.3704 7.98215C10.4335 7.91879 10.4835 7.84357 10.5174 7.76082C10.5513 7.67807 10.5686 7.58943 10.5681 7.5C10.5681 7.1233 10.2613 6.81818 9.88938 6.81818H2.32794L4.91377 4.23205C5.03797 4.10345 5.10669 3.93122 5.10514 3.75245C5.10358 3.57368 5.03188 3.40268 4.90546 3.27626C4.77904 3.14985 4.60803 3.07814 4.42926 3.07659C4.25049 3.07503 4.07826 3.14376 3.94967 3.26796L0.199629 7.01795C0.071806 7.14581 0 7.31921 0 7.5C0 7.68079 0.071806 7.85419 0.199629 7.98205L3.94967 11.732C4.07826 11.8562 4.25049 11.925 4.42926 11.9234C4.60803 11.9219 4.77904 11.8502 4.90546 11.7237C5.03188 11.5973 5.10358 11.4263 5.10514 11.2475C5.10669 11.0688 5.03797 10.8965 4.91377 10.768L2.3276 8.18182ZM6.8181 5.45069e-07C6.63727 5.45069e-07 6.46385 0.0718347 6.33598 0.1997C6.20811 0.327566 6.13628 0.500989 6.13628 0.681819C6.13628 0.862648 6.20811 1.03607 6.33598 1.16394C6.46385 1.2918 6.63727 1.36364 6.8181 1.36364H13.2924C13.4833 1.36364 13.6364 1.5167 13.6364 1.70693V13.2931C13.6364 13.483 13.4829 13.6364 13.2924 13.6364H6.8181C6.63727 13.6364 6.46385 13.7082 6.33598 13.8361C6.20811 13.9639 6.13628 14.1374 6.13628 14.3182C6.13628 14.499 6.20811 14.6724 6.33598 14.8003C6.46385 14.9282 6.63727 15 6.8181 15H13.2924C13.5166 15.0001 13.7386 14.956 13.9458 14.8703C14.153 14.7845 14.3412 14.6588 14.4998 14.5003C14.6584 14.3418 14.7842 14.1536 14.87 13.9464C14.9558 13.7393 15 13.5173 15 13.2931V1.70693C15.0001 1.48269 14.956 1.26063 14.8702 1.05345C14.7844 0.846275 14.6586 0.658038 14.5 0.499508C14.3414 0.340978 14.1531 0.215264 13.9459 0.129555C13.7387 0.0438451 13.5166 -0.000178686 13.2924 5.45069e-07H6.8181Z" fill="#4475F2"/>
</svg>
