<svg xmlns="http://www.w3.org/2000/svg" width="40" height="40" fill="none" viewBox="0 0 40 40"><path stroke="url(#a)" stroke-linecap="round" stroke-linejoin="round" stroke-miterlimit="10" stroke-width="2" d="M3.75 13.75h32.5"/><circle cx="8.75" cy="10" r="1.25" fill="#000"/><circle cx="8.75" cy="10" r="1.25" fill="url(#b)"/><circle cx="12.5" cy="10" r="1.25" fill="#000"/><circle cx="12.5" cy="10" r="1.25" fill="url(#c)"/><circle cx="16.25" cy="10" r="1.25" fill="#000"/><circle cx="16.25" cy="10" r="1.25" fill="url(#d)"/><path stroke="#000" stroke-linecap="round" stroke-linejoin="round" stroke-miterlimit="10" stroke-width="2" d="M11 33.75H3.75V6.25h32.5v27.5H29c.375-.125.75-.125 1.125-.125.125-.75.25-1.625.25-2.375 0-.875-.125-1.625-.25-2.375-1.25.125-2.5-.375-3.125-1.625-.625-1.125-.5-2.5.25-3.5-1.125-1.125-2.625-2-4.25-2.5-.5 1.125-1.625 2-3 2s-2.5-.875-3-2c-1.625.5-3 1.375-4.25 2.5.75 1 .875 2.375.25 3.5S11 29 9.875 28.875c-.125.75-.25 1.625-.25 2.375 0 .875.125 1.625.25 2.375.375 0 .75 0 1.125.125"/><path stroke="url(#e)" stroke-linecap="round" stroke-linejoin="round" stroke-miterlimit="10" stroke-width="2" d="M11 33.75H3.75V6.25h32.5v27.5H29c.375-.125.75-.125 1.125-.125.125-.75.25-1.625.25-2.375 0-.875-.125-1.625-.25-2.375-1.25.125-2.5-.375-3.125-1.625-.625-1.125-.5-2.5.25-3.5-1.125-1.125-2.625-2-4.25-2.5-.5 1.125-1.625 2-3 2s-2.5-.875-3-2c-1.625.5-3 1.375-4.25 2.5.75 1 .875 2.375.25 3.5S11 29 9.875 28.875c-.125.75-.25 1.625-.25 2.375 0 .875.125 1.625.25 2.375.375 0 .75 0 1.125.125"/><path stroke="url(#f)" stroke-linecap="round" stroke-linejoin="round" stroke-miterlimit="10" stroke-width="2" d="M20 35a3.75 3.75 0 1 0 0-7.5 3.75 3.75 0 0 0 0 7.5"/><defs><linearGradient id="a" x1="3.75" x2="36.25" y1="14.25" y2="14.25" gradientUnits="userSpaceOnUse"><stop stop-color="#10A2C8"/><stop offset="1" stop-color="#1C57CC"/></linearGradient><linearGradient id="b" x1="7.5" x2="10.3172" y1="11.2615" y2="9.1647" gradientUnits="userSpaceOnUse"><stop stop-color="#09C9C6"/><stop offset="1" stop-color="#1E46CC"/></linearGradient><linearGradient id="c" x1="11.25" x2="14.0672" y1="11.2615" y2="9.1647" gradientUnits="userSpaceOnUse"><stop stop-color="#09C9C6"/><stop offset="1" stop-color="#1E46CC"/></linearGradient><linearGradient id="d" x1="15" x2="17.8172" y1="11.2615" y2="9.1647" gradientUnits="userSpaceOnUse"><stop stop-color="#09C9C6"/><stop offset="1" stop-color="#1E46CC"/></linearGradient><linearGradient id="e" x1="3.75" x2="35.8362" y1="33.8763" y2="5.65328" gradientUnits="userSpaceOnUse"><stop stop-color="#09C9C6"/><stop offset="1" stop-color="#1E46CC"/></linearGradient><linearGradient id="f" x1="15.625" x2="25.625" y1="33.75" y2="33.75" gradientUnits="userSpaceOnUse"><stop stop-color="#0CB8C7"/><stop offset="1" stop-color="#1390C9"/></linearGradient></defs></svg>