<svg xmlns="http://www.w3.org/2000/svg" width="120" height="120" fill="none" viewBox="0 0 120 120"><path fill="url(#a)" d="M74.993 12.512 41.771 44.098l31.42-.146 16.646-15.826zM99.01 70.744v16.79h13.633v-16.79zm-5.848 16.79v-16.79h-7.137v16.79zm-7.43-22.64h15.46V49.947H24.088c-3.846 0-3.846-5.85 0-5.85h9.214L50.78 27.483H16.367c-4.95 0-9.01 4.06-9.01 9.01v63.18c0 4.949 4.06 9.008 9.01 9.008H92.18c4.95 0 9.01-4.059 9.01-9.009v-6.288H85.73c-3.057 0-5.556-2.505-5.556-5.556V70.45c0-3.056 2.503-5.556 5.556-5.556m21.308 0h5.895a5.565 5.565 0 0 1 5.557 5.556v17.377a5.565 5.565 0 0 1-5.557 5.556h-5.895v6.288c0 8.178-6.68 14.858-14.858 14.858H16.367c-8.178 0-14.858-6.68-14.858-14.858V36.492c0-8.178 6.68-14.858 14.858-14.858H56.93l16.156-15.36a2.917 2.917 0 0 1 4.124.103l14.505 15.257h.465c8.178 0 14.858 6.68 14.858 14.858zM81.504 44.098h19.687v-7.606c0-3.165-1.678-6.076-4.367-7.709a2.9 2.9 0 0 1-.851 1.56z"/><defs><linearGradient id="a" x1="118.612" x2="1.38653" y1="5.54932" y2="114.451" gradientUnits="userSpaceOnUse"><stop stop-color="#1E46CC"/><stop offset="1" stop-color="#0DADC7"/></linearGradient></defs></svg>