<svg xmlns="http://www.w3.org/2000/svg" width="40" height="40" fill="none" viewBox="0 0 40 40"><path stroke="url(#a)" stroke-linecap="round" stroke-linejoin="round" stroke-width="2" d="M29.599 17.472v-12.8"/><path stroke="url(#b)" stroke-linecap="round" stroke-linejoin="round" stroke-width="2" d="m24.48 13.333 5.12 5.12 5.12-5.12"/><path stroke="url(#c)" stroke-linecap="round" stroke-linejoin="round" stroke-width="2" d="M17.729 6.352h-7.328a6.4 6.4 0 0 0-6.4 6.4v16a6.4 6.4 0 0 0 6.4 6.4h19.2a6.4 6.4 0 0 0 6.4-6.4V22.24"/><path stroke="url(#d)" stroke-linecap="round" stroke-linejoin="round" stroke-width="2" d="M4.001 15.952h5.392a4.8 4.8 0 0 1 0 9.6H4.001"/><defs><linearGradient id="a" x1="30.532" x2="28.6743" y1="4.35108" y2="4.48008" gradientUnits="userSpaceOnUse"><stop stop-color="#1E4BCC"/><stop offset="1" stop-color="#0AC3C7"/></linearGradient><linearGradient id="b" x1="34.0368" x2="29.4425" y1="18.5814" y2="10.4138" gradientUnits="userSpaceOnUse"><stop stop-color="#1E4BCC"/><stop offset="1" stop-color="#0AC3C7"/></linearGradient><linearGradient id="c" x1="33.8676" x2="3.62996" y1="5.62976" y2="35.4941" gradientUnits="userSpaceOnUse"><stop stop-color="#1E4BCC"/><stop offset="1" stop-color="#0AC3C7"/></linearGradient><linearGradient id="d" x1="13.5136" x2="3.45045" y1="15.7115" y2="25.2082" gradientUnits="userSpaceOnUse"><stop stop-color="#1E4BCC"/><stop offset="1" stop-color="#0AC3C7"/></linearGradient></defs></svg>