<svg xmlns="http://www.w3.org/2000/svg" width="40" height="40" fill="none" viewBox="0 0 40 40"><path stroke="url(#a)" stroke-linecap="round" stroke-linejoin="round" stroke-width="2" d="M11.667 16.667h16.666m-16.666 6.666H20M11.667 5v3.333M28.333 5v3.333M10.333 35h19.334c1.866 0 2.8 0 3.513-.363a3.33 3.33 0 0 0 1.457-1.457c.363-.713.363-1.646.363-3.513v-16c0-1.867 0-2.8-.363-3.514a3.33 3.33 0 0 0-1.457-1.456c-.713-.364-1.646-.364-3.513-.364H10.333c-1.867 0-2.8 0-3.513.364-.627.32-1.137.83-1.457 1.456C5 10.866 5 11.8 5 13.667v16c0 1.866 0 2.8.363 3.513.32.627.83 1.137 1.457 1.457.713.363 1.646.363 3.513.363"/><defs><linearGradient id="a" x1="33" x2="1.71727" y1="4.24812" y2="32.055" gradientUnits="userSpaceOnUse"><stop stop-color="#1E4BCC"/><stop offset="1" stop-color="#0AC3C7"/></linearGradient></defs></svg>