<svg xmlns="http://www.w3.org/2000/svg" width="120" height="120" fill="none" viewBox="0 0 120 120"><g clip-path="url(#a)"><path fill="url(#b)" fill-rule="evenodd" d="M22.289 44.173a2.39 2.39 0 0 1-2.39-2.39V10.864a2.39 2.39 0 1 1 4.78 0v30.919a2.39 2.39 0 0 1-2.39 2.39m87.502-15.278H55.373c-5.63 0-10.209-4.58-10.209-10.209 0-5.63 4.58-10.209 10.209-10.209h54.418c5.629 0 10.209 4.58 10.209 10.21 0 5.628-4.58 10.208-10.209 10.208M55.373 13.258a5.434 5.434 0 0 0-5.428 5.428 5.434 5.434 0 0 0 5.428 5.428h54.418a5.434 5.434 0 0 0 5.428-5.428 5.434 5.434 0 0 0-5.428-5.428zm0 43.15h54.418c5.629 0 10.209-4.58 10.209-10.21 0-5.629-4.58-10.208-10.209-10.208H55.373c-5.63 0-10.209 4.58-10.209 10.209s4.58 10.208 10.209 10.208m-5.428-10.21a5.434 5.434 0 0 1 5.428-5.427h54.418a5.434 5.434 0 0 1 5.428 5.428 5.434 5.434 0 0 1-5.428 5.428H55.373a5.434 5.434 0 0 1-5.428-5.428m-39.736 37.77h99.582c5.629 0 10.209-4.58 10.209-10.21 0-5.629-4.58-10.208-10.209-10.208H10.209C4.579 63.55 0 68.13 0 73.758c0 5.63 4.58 10.21 10.209 10.21M4.78 73.757a5.434 5.434 0 0 1 5.428-5.428h99.582a5.434 5.434 0 0 1 5.428 5.428 5.434 5.434 0 0 1-5.428 5.428H10.209a5.434 5.434 0 0 1-5.428-5.428m5.428 37.769h99.582c5.629 0 10.209-4.579 10.209-10.209 0-5.629-4.58-10.208-10.209-10.208H10.209C4.579 91.11 0 95.69 0 101.318c0 5.63 4.58 10.209 10.209 10.209M4.78 101.318a5.434 5.434 0 0 1 5.428-5.427h99.582a5.434 5.434 0 0 1 5.428 5.427 5.434 5.434 0 0 1-5.428 5.428H10.209a5.434 5.434 0 0 1-5.428-5.428m69.286-81.113H55.809a2.39 2.39 0 1 1 0-4.781h18.258a2.39 2.39 0 1 1 0 4.78m7.817 0h3.323a2.39 2.39 0 1 0 0-4.781h-3.323a2.39 2.39 0 1 0 0 4.78m-61.286 35.47c.466.467 1.078.7 1.69.7s1.224-.233 1.69-.7l16.758-16.757a2.39 2.39 0 1 0-3.381-3.38L22.288 50.604 7.222 35.538a2.39 2.39 0 1 0-3.381 3.38z" clip-rule="evenodd"/></g><defs><linearGradient id="b" x1="120.124" x2="9.05629" y1="8.54793" y2="120.558" gradientUnits="userSpaceOnUse"><stop stop-color="#1E46CC"/><stop offset="1" stop-color="#0DADC7"/></linearGradient><clipPath id="a"><path fill="#fff" d="M0 0h120v120H0z"/></clipPath></defs></svg>