<svg xmlns="http://www.w3.org/2000/svg" width="40" height="40" fill="none" viewBox="0 0 40 40"><path fill="url(#a)" d="M10.734 33.625a1 1 0 0 0-.218.031 1.06 1.06 0 0 0-.688.5c-.312.516.078 1.297.656 1.64A18.3 18.3 0 0 0 20 38.439c4.922 0 9.547-1.922 13.031-5.407 3.485-3.484 5.407-8.11 5.407-13.031s-1.922-9.547-5.407-13.031C29.547 3.484 24.921 1.563 20 1.563S10.453 3.484 6.969 6.969 1.563 15.079 1.563 20a18.4 18.4 0 0 0 2.984 10.063 1.1 1.1 0 0 0 .687.5c.282.062.563 0 .813-.172.625-.407.094-1.328-.078-1.61A15.76 15.76 0 0 1 3.359 20c0-2.172.454-4.297 1.344-6.344a17 17 0 0 1 3.64-5.297 17.3 17.3 0 0 1 5.298-3.64 15.85 15.85 0 0 1 6.343-1.344c2.172 0 4.313.453 6.36 1.344 1.968.86 3.75 2.078 5.297 3.64a17.2 17.2 0 0 1 3.64 5.297c.89 2.047 1.36 4.188 1.36 6.36s-.453 4.312-1.344 6.359a17 17 0 0 1-3.64 5.297 17.5 17.5 0 0 1-5.298 3.64 15.85 15.85 0 0 1-6.343 1.344c-3.438 0-6.891-1.781-8.641-2.828a1.1 1.1 0 0 0-.64-.203M24.281 8.75l-9.86 10.656 4.938 1.032-4 9.562 10.22-10.422-4.626-1z"/><defs><linearGradient id="a" x1="1.5625" x2="43.1163" y1="38.607" y2="7.67963" gradientUnits="userSpaceOnUse"><stop stop-color="#09C9C6"/><stop offset="1" stop-color="#1E46CC"/></linearGradient></defs></svg>