<svg width="46" height="46" viewBox="0 0 46 46" fill="none" xmlns="http://www.w3.org/2000/svg">
<path d="M3.8335 22.9997C3.8335 26.7905 4.9576 30.4962 7.06366 33.6481C9.16972 36.8 12.1631 39.2567 15.6654 40.7074C19.1676 42.1581 23.0214 42.5376 26.7394 41.7981C30.4574 41.0585 33.8725 39.2331 36.553 36.5526C39.2336 33.8721 41.059 30.4569 41.7986 26.7389C42.5381 23.0209 42.1585 19.1672 40.7079 15.6649C39.2572 12.1627 36.8005 9.16923 33.6486 7.06317C30.4967 4.95711 26.791 3.83301 23.0002 3.83301C20.4832 3.83301 17.9908 4.32877 15.6654 5.29198C13.34 6.2552 11.2271 7.66701 9.44728 9.44679C5.85284 13.0412 3.8335 17.9164 3.8335 22.9997ZM26.5652 15.9272L32.0468 21.6772C32.128 21.7603 32.1929 21.8578 32.2385 21.9647C32.3199 22.0549 32.3848 22.1587 32.4302 22.2713C32.5316 22.5008 32.5839 22.7488 32.5839 22.9997C32.5839 23.2505 32.5316 23.4986 32.4302 23.728C32.3389 23.9633 32.2022 24.1782 32.0277 24.3605L26.2777 30.1105C25.9167 30.4714 25.4272 30.6742 24.9168 30.6742C24.4064 30.6742 23.9169 30.4714 23.556 30.1105C23.1951 29.7496 22.9923 29.2601 22.9923 28.7497C22.9923 28.2393 23.1951 27.7498 23.556 27.3888L26.0477 24.9163H15.3335C14.8252 24.9163 14.3377 24.7144 13.9782 24.355C13.6188 23.9955 13.4168 23.508 13.4168 22.9997C13.4168 22.4913 13.6188 22.0038 13.9782 21.6444C14.3377 21.2849 14.8252 21.083 15.3335 21.083H26.1818L23.786 18.5722C23.4352 18.2036 23.2453 17.7109 23.2578 17.2022C23.2704 16.6936 23.4845 16.2108 23.8531 15.8601C24.2216 15.5093 24.7144 15.3194 25.223 15.3319C25.7316 15.3445 26.2144 15.5586 26.5652 15.9272Z" fill="#4475F2"/>
</svg>
