<svg width="30" height="30" viewBox="0 0 30 30" fill="none" xmlns="http://www.w3.org/2000/svg">
<circle opacity="0.2" cx="15" cy="15" r="13.9" stroke="black" stroke-width="2.2"/>
<path d="M20.1417 12C19.9415 11.9996 19.7475 12.0693 19.5933 12.1969L15.0008 16.0328L10.3998 12.3339C10.3121 12.2628 10.2113 12.2097 10.1031 12.1776C9.99481 12.1456 9.88129 12.1352 9.76902 12.1472C9.65676 12.1591 9.54796 12.1931 9.44888 12.2472C9.3498 12.3013 9.2624 12.3744 9.19169 12.4624C9.12052 12.5499 9.06737 12.6507 9.0353 12.7589C9.00323 12.8671 8.99286 12.9805 9.00481 13.0927C9.01675 13.2049 9.05076 13.3136 9.10489 13.4126C9.15902 13.5116 9.23219 13.599 9.32021 13.6696L14.4611 17.8052C14.6144 17.9312 14.8067 18 15.0051 18C15.2036 18 15.3959 17.9312 15.5492 17.8052L20.69 13.5241C20.7768 13.4522 20.8485 13.3639 20.9011 13.2643C20.9536 13.1647 20.986 13.0557 20.9964 12.9435C21.0067 12.8314 20.9948 12.7183 20.9614 12.6108C20.9279 12.5032 20.8736 12.4033 20.8014 12.3168C20.7217 12.2186 20.6212 12.1392 20.5071 12.0845C20.393 12.0297 20.2682 12.0008 20.1417 12Z" fill="black"/>
</svg>
