<svg width="50" height="50" viewBox="0 0 50 50" fill="none" xmlns="http://www.w3.org/2000/svg">
<path d="M10.4165 33.3337H12.4998H10.4165ZM37.4998 16.667H39.5832H37.4998ZM41.6665 39.5837H8.33317C6.03109 39.5837 4.1665 37.7191 4.1665 35.417V14.5837C4.1665 12.2816 6.03109 10.417 8.33317 10.417H41.6665C43.9686 10.417 45.8332 12.2816 45.8332 14.5837V35.417C45.8332 37.7191 43.9686 39.5837 41.6665 39.5837Z" stroke="#323232" stroke-linecap="round" stroke-linejoin="round"/>
<path d="M26.4553 26.9106C29.2409 26.9106 30.9444 25.0243 30.9444 22.5239C30.9444 19.9942 29.2409 18.1152 26.4553 18.1152H21.7835V26.0625H20.1677C19.9335 26.0625 19.7437 26.2523 19.7437 26.4865C19.7437 26.7207 19.9335 26.9106 20.1677 26.9106H21.7835V28.2558H20.1677C19.9335 28.2558 19.7437 28.4457 19.7437 28.6799C19.7437 28.9141 19.9335 29.1039 20.1677 29.1039H21.7835V33.0885H22.6974V29.1039H26.0313C26.2654 29.1039 26.4553 28.9141 26.4553 28.6799C26.4553 28.4457 26.2654 28.2558 26.0313 28.2558H22.6974V26.9106H26.4553ZM22.6974 26.0625V18.9633H26.4553C28.656 18.9633 30.0378 20.4329 30.0378 22.5239C30.0378 24.5856 28.656 26.0625 26.4553 26.0625H22.6974Z" fill="black"/>
</svg>
