<svg width="50" height="50" viewBox="0 0 50 50" fill="none" xmlns="http://www.w3.org/2000/svg">
<path d="M6.33125 16.4894H39.5833C41.8854 16.4894 43.75 18.3539 43.75 20.656V39.5831C43.75 41.8748 41.875 43.7498 39.5833 43.7498H10.4167C8.11458 43.7498 6.25 41.8852 6.25 39.5831V17.2727C6.25 15.5394 7.32292 13.9873 8.94583 13.3748L30.5146 5.23102C31.8771 4.71644 33.3333 5.72269 33.3333 7.17894V16.4873" stroke="#323232" stroke-linecap="round" stroke-linejoin="round"/>
<path d="M33.3353 29.4277C32.9041 29.4298 32.5562 29.7798 32.5562 30.211C32.5562 30.6422 32.9062 30.9922 33.3374 30.9901C33.7687 30.9901 34.1187 30.6402 34.1187 30.2089C34.1187 29.7777 33.7687 29.4277 33.3353 29.4277Z" stroke="#323232" stroke-linecap="round" stroke-linejoin="round"/>
</svg>
