<svg width="50" height="50" viewBox="0 0 50 50" fill="none" xmlns="http://www.w3.org/2000/svg">
<path d="M16.6668 27.0833H33.3335M16.6668 35.4167H33.3335M12.5002 6.25H31.6085C32.7127 6.25 33.7731 6.68958 34.5543 7.47083L40.446 13.3625C41.2272 14.1438 41.6668 15.2042 41.6668 16.3083V39.5833C41.6668 41.8854 39.8022 43.75 37.5002 43.75H12.5002C10.1981 43.75 8.3335 41.8854 8.3335 39.5833V10.4167C8.3335 8.11458 10.1981 6.25 12.5002 6.25Z" stroke="#323232" stroke-linecap="round" stroke-linejoin="round"/>
<path d="M16.667 18.75H22.917M41.667 16.6667H33.3337C32.1837 16.6667 31.2503 15.7333 31.2503 14.5833V6.25C32.8804 6.25 33.7646 6.25 37.7277 10.4545C42.2731 15 41.667 15 41.667 16.6667Z" stroke="#323232" stroke-linecap="round" stroke-linejoin="round"/>
</svg>
