<svg width="50" height="50" viewBox="0 0 50 50" fill="none" xmlns="http://www.w3.org/2000/svg">
<path d="M16.6875 35.4167H33.3125H16.6875ZM16.6875 27.0833H33.3125H16.6875ZM39.5833 18.75H26.1146C25.4187 18.75 24.7667 18.4021 24.3812 17.8229L21.4521 13.4292C21.0646 12.8479 20.4146 12.5 19.7187 12.5H10.4167C8.11458 12.5 6.25 14.3646 6.25 16.6667V39.5833C6.25 41.8854 8.11458 43.75 10.4167 43.75H39.5833C41.8854 43.75 43.75 41.8854 43.75 39.5833V22.9167C43.75 20.6146 41.8854 18.75 39.5833 18.75Z" stroke="#323232" stroke-linecap="round" stroke-linejoin="round"/>
<path d="M10.4165 12.5V10.4167C10.4165 8.11458 12.2811 6.25 14.5832 6.25H35.4165C37.7186 6.25 39.5832 8.11458 39.5832 10.4167V18.75" stroke="#323232" stroke-linecap="round" stroke-linejoin="round"/>
</svg>
