<svg width="38" height="38" viewBox="0 0 38 38" fill="none" xmlns="http://www.w3.org/2000/svg">
<path d="M29.5556 19C29.5556 19.4644 29.1756 19.8444 28.7111 19.8444H19.8444V28.7111C19.8444 29.1756 19.4644 29.5556 19 29.5556C18.5356 29.5556 18.1556 29.1756 18.1556 28.7111V19.8444H9.28889C8.82444 19.8444 8.44444 19.4644 8.44444 19C8.44444 18.5356 8.82444 18.1556 9.28889 18.1556H18.1556V9.28889C18.1556 8.82444 18.5356 8.44444 19 8.44444C19.4644 8.44444 19.8444 8.82444 19.8444 9.28889V18.1556H28.7111C29.1756 18.1556 29.5556 18.5356 29.5556 19ZM38 19C38 29.4711 29.4711 38 19 38C8.52889 38 0 29.4711 0 19C0 8.52889 8.52889 0 19 0C29.4711 0 38 8.52889 38 19ZM36.3111 19C36.3111 9.45778 28.5422 1.68889 19 1.68889C9.45778 1.68889 1.68889 9.45778 1.68889 19C1.68889 28.5422 9.45778 36.3111 19 36.3111C28.5422 36.3111 36.3111 28.5422 36.3111 19Z" fill="#4475F2"/>
</svg>
